<svg width="1280" height="720" xmlns="http://www.w3.org/2000/svg" xmlns:xlink="http://www.w3.org/1999/xlink" overflow="hidden"><defs><clipPath id="clip0"><path d="M0 0 1280 0 1280 720 0 720Z" fill-rule="evenodd" clip-rule="evenodd"/></clipPath><clipPath id="clip1"><path d="M226 154 355 154 355 283 226 283Z" fill-rule="evenodd" clip-rule="evenodd"/></clipPath><clipPath id="clip2"><path d="M226 154 355 154 355 283 226 283Z" fill-rule="evenodd" clip-rule="evenodd"/></clipPath><clipPath id="clip3"><path d="M226 154 355 154 355 283 226 283Z" fill-rule="evenodd" clip-rule="evenodd"/></clipPath><clipPath id="clip4"><path d="M226 379 355 379 355 509 226 509Z" fill-rule="evenodd" clip-rule="evenodd"/></clipPath><clipPath id="clip5"><path d="M226 379 355 379 355 509 226 509Z" fill-rule="evenodd" clip-rule="evenodd"/></clipPath><clipPath id="clip6"><path d="M226 379 355 379 355 509 226 509Z" fill-rule="evenodd" clip-rule="evenodd"/></clipPath><clipPath id="clip7"><path d="M259 101 322 101 322 158 259 158Z" fill-rule="evenodd" clip-rule="evenodd"/></clipPath><clipPath id="clip8"><path d="M259 101 322 101 322 158 259 158Z" fill-rule="evenodd" clip-rule="evenodd"/></clipPath><clipPath id="clip9"><path d="M259 101 322 101 322 158 259 158Z" fill-rule="evenodd" clip-rule="evenodd"/></clipPath><clipPath id="clip10"><path d="M263 336 318 336 318 392 263 392Z" fill-rule="evenodd" clip-rule="evenodd"/></clipPath><clipPath id="clip11"><path d="M263 336 318 336 318 392 263 392Z" fill-rule="evenodd" clip-rule="evenodd"/></clipPath><clipPath id="clip12"><path d="M263 336 318 336 318 392 263 392Z" fill-rule="evenodd" clip-rule="evenodd"/></clipPath><clipPath id="clip13"><path d="M926 301 1036 301 1036 411 926 411Z" fill-rule="evenodd" clip-rule="evenodd"/></clipPath><clipPath id="clip14"><path d="M926 301 1036 301 1036 411 926 411Z" fill-rule="evenodd" clip-rule="evenodd"/></clipPath><clipPath id="clip15"><path d="M926 301 1036 301 1036 411 926 411Z" fill-rule="evenodd" clip-rule="evenodd"/></clipPath><clipPath id="clip16"><path d="M527 245 707 245 707 425 527 425Z" fill-rule="evenodd" clip-rule="evenodd"/></clipPath><clipPath id="clip17"><path d="M527 245 707 245 707 425 527 425Z" fill-rule="evenodd" clip-rule="evenodd"/></clipPath><clipPath id="clip18"><path d="M527 245 707 245 707 425 527 425Z" fill-rule="evenodd" clip-rule="evenodd"/></clipPath><clipPath id="clip19"><path d="M581 288 653 288 653 360 581 360Z" fill-rule="evenodd" clip-rule="evenodd"/></clipPath><clipPath id="clip20"><path d="M581 288 653 288 653 360 581 360Z" fill-rule="evenodd" clip-rule="evenodd"/></clipPath><clipPath id="clip21"><path d="M581 288 653 288 653 360 581 360Z" fill-rule="evenodd" clip-rule="evenodd"/></clipPath><clipPath id="clip22"><path d="M376 531 506 531 506 661 376 661Z" fill-rule="evenodd" clip-rule="evenodd"/></clipPath><clipPath id="clip23"><path d="M376 531 506 531 506 661 376 661Z" fill-rule="evenodd" clip-rule="evenodd"/></clipPath><clipPath id="clip24"><path d="M376 531 506 531 506 661 376 661Z" fill-rule="evenodd" clip-rule="evenodd"/></clipPath><clipPath id="clip25"><path d="M407 468 475 468 475 535 407 535Z" fill-rule="evenodd" clip-rule="evenodd"/></clipPath><clipPath id="clip26"><path d="M407 468 475 468 475 535 407 535Z" fill-rule="evenodd" clip-rule="evenodd"/></clipPath><clipPath id="clip27"><path d="M407 468 475 468 475 535 407 535Z" fill-rule="evenodd" clip-rule="evenodd"/></clipPath></defs><g clip-path="url(#clip0)"><rect x="0" y="0" width="1280" height="720" fill="#FFFFFF"/><g clip-path="url(#clip1)"><g clip-path="url(#clip2)"><g clip-path="url(#clip3)"><path d="M328.125 178.188C328.125 184.125 311.28 188.938 290.5 188.938 269.72 188.938 252.875 184.125 252.875 178.188 252.875 172.25 269.72 167.438 290.5 167.438 311.28 167.438 328.125 172.25 328.125 178.188Z"/><path d="M317.375 205.063C315.763 205.063 314.688 203.988 314.688 202.375 314.688 200.762 315.763 199.688 317.375 199.688 318.987 199.688 320.063 200.762 320.063 202.375 320.063 203.988 318.987 205.063 317.375 205.063ZM290.5 194.313C269.806 194.313 252.875 189.475 252.875 183.563L252.875 205.063C252.875 210.975 269.806 215.813 290.5 215.813 311.194 215.813 328.125 210.975 328.125 205.063L328.125 183.563C328.125 189.475 311.194 194.313 290.5 194.313Z"/><path d="M317.375 231.938C315.763 231.938 314.688 230.863 314.688 229.25 314.688 227.637 315.763 226.563 317.375 226.563 318.987 226.563 320.063 227.637 320.063 229.25 320.063 230.863 318.987 231.938 317.375 231.938ZM290.5 221.188C269.806 221.188 252.875 216.35 252.875 210.438L252.875 231.938C252.875 237.85 269.806 242.688 290.5 242.688 311.194 242.688 328.125 237.85 328.125 231.938L328.125 210.438C328.125 216.35 311.194 221.188 290.5 221.188Z"/><path d="M317.375 258.813C315.763 258.813 314.688 257.737 314.688 256.125 314.688 254.513 315.763 253.438 317.375 253.438 318.987 253.438 320.063 254.513 320.063 256.125 320.063 257.737 318.987 258.813 317.375 258.813ZM290.5 248.063C269.806 248.063 252.875 243.225 252.875 237.313L252.875 258.813C252.875 264.725 269.806 269.563 290.5 269.563 311.194 269.563 328.125 264.725 328.125 258.813L328.125 237.313C328.125 243.225 311.194 248.063 290.5 248.063Z"/></g></g></g><g clip-path="url(#clip4)"><g clip-path="url(#clip5)"><g clip-path="url(#clip6)"><path d="M102.125 24.1875C102.125 30.1246 85.2797 34.9375 64.5 34.9375 43.7203 34.9375 26.875 30.1246 26.875 24.1875 26.875 18.2504 43.7203 13.4375 64.5 13.4375 85.2797 13.4375 102.125 18.2504 102.125 24.1875Z" transform="matrix(1 0 -0 1.00775 226 379)"/><path d="M91.375 51.0625C89.7625 51.0625 88.6875 49.9875 88.6875 48.375 88.6875 46.7625 89.7625 45.6875 91.375 45.6875 92.9875 45.6875 94.0625 46.7625 94.0625 48.375 94.0625 49.9875 92.9875 51.0625 91.375 51.0625ZM64.5 40.3125C43.8062 40.3125 26.875 35.475 26.875 29.5625L26.875 51.0625C26.875 56.975 43.8062 61.8125 64.5 61.8125 85.1937 61.8125 102.125 56.975 102.125 51.0625L102.125 29.5625C102.125 35.475 85.1937 40.3125 64.5 40.3125Z" transform="matrix(1 0 -0 1.00775 226 379)"/><path d="M91.375 77.9375C89.7625 77.9375 88.6875 76.8625 88.6875 75.25 88.6875 73.6375 89.7625 72.5625 91.375 72.5625 92.9875 72.5625 94.0625 73.6375 94.0625 75.25 94.0625 76.8625 92.9875 77.9375 91.375 77.9375ZM64.5 67.1875C43.8062 67.1875 26.875 62.35 26.875 56.4375L26.875 77.9375C26.875 83.85 43.8062 88.6875 64.5 88.6875 85.1937 88.6875 102.125 83.85 102.125 77.9375L102.125 56.4375C102.125 62.35 85.1937 67.1875 64.5 67.1875Z" transform="matrix(1 0 -0 1.00775 226 379)"/><path d="M91.375 104.813C89.7625 104.813 88.6875 103.737 88.6875 102.125 88.6875 100.513 89.7625 99.4375 91.375 99.4375 92.9875 99.4375 94.0625 100.513 94.0625 102.125 94.0625 103.737 92.9875 104.813 91.375 104.813ZM64.5 94.0625C43.8062 94.0625 26.875 89.225 26.875 83.3125L26.875 104.813C26.875 110.725 43.8062 115.563 64.5 115.563 85.1937 115.563 102.125 110.725 102.125 104.813L102.125 83.3125C102.125 89.225 85.1937 94.0625 64.5 94.0625Z" transform="matrix(1 0 -0 1.00775 226 379)"/></g></g></g><g clip-path="url(#clip7)"><g clip-path="url(#clip8)"><g clip-path="url(#clip9)"><path d="M41.5625 28.5C41.5625 21.7312 37.05 18.1688 32.2406 15.4375 37.05 12.6469 41.5625 9.14375 41.5625 2.375L38 2.375C38 3.44375 37.8219 4.45313 37.525 5.34375L19.475 5.34375C19.1781 4.45313 19 3.44375 19 2.375L15.4375 2.375C15.4375 9.14375 19.95 12.6469 24.7594 15.4375 19.95 18.1688 15.4375 21.7312 15.4375 28.5 15.4375 35.3281 19.95 38.8906 24.7594 41.6219 19.95 44.3531 15.4375 47.8563 15.4375 54.625L19 54.625C19 53.4969 19.1781 52.5469 19.475 51.6563L37.525 51.6563C37.8219 52.5469 38 53.4969 38 54.625L41.5625 54.625C41.5625 47.8563 37.05 44.3531 32.2406 41.6219 37.05 38.8906 41.5625 35.3281 41.5625 28.5ZM19 28.5C19 27.4312 19.1781 26.4219 19.475 25.5313L37.5844 25.5313C37.8812 26.4219 38.0594 27.4312 38.0594 28.5 38.0594 29.5688 37.8812 30.5781 37.5844 31.4688L19.475 31.4688C19.1781 30.5781 19 29.5688 19 28.5ZM21.7312 8.90625 35.2094 8.90625C33.4875 10.6281 31.0531 11.9938 28.4406 13.4187 25.8875 11.9938 23.4531 10.6281 21.7312 8.90625ZM28.5 17.4562C31.1125 18.8813 33.5469 20.2469 35.2687 21.9688L21.7312 21.9688C23.4531 20.2469 25.8875 18.8219 28.5 17.4562ZM28.5 43.6406C31.1125 45.0063 33.4875 46.3719 35.2094 48.0938L21.7906 48.0938C23.5125 46.3719 25.8875 45.0063 28.5 43.6406ZM28.5 39.6031C25.8281 38.1781 23.3938 36.8125 21.6719 35.0313L35.3281 35.0313C33.6063 36.8125 31.1719 38.1781 28.5 39.6031Z" transform="matrix(1.10526 0 -0 1 259 101)"/></g></g></g><g clip-path="url(#clip10)"><g clip-path="url(#clip11)"><g clip-path="url(#clip12)"><path d="M27.5 9.16667C17.3594 9.16667 9.16667 17.3594 9.16667 27.5 9.16667 37.6406 17.3594 45.8333 27.5 45.8333 37.6406 45.8333 45.8333 37.6406 45.8333 27.5 45.8333 17.3594 37.6406 9.16667 27.5 9.16667ZM27.5 49.2708C15.4688 49.2708 5.72917 39.5313 5.72917 27.5 5.72917 15.4688 15.4688 5.72917 27.5 5.72917 39.5313 5.72917 49.2708 15.4688 49.2708 27.5 49.2708 39.5313 39.5313 49.2708 27.5 49.2708Z" transform="matrix(1 0 -0 1.01818 263 336)"/><path d="M38.9583 22.9167 32.0833 22.9167 32.0833 16.0417C32.0833 14.7813 31.0521 13.75 29.7917 13.75L25.2083 13.75C23.9479 13.75 22.9167 14.7813 22.9167 16.0417L22.9167 22.9167 16.0417 22.9167C14.7813 22.9167 13.75 23.9479 13.75 25.2083L13.75 29.7917C13.75 31.0521 14.7813 32.0833 16.0417 32.0833L22.9167 32.0833 22.9167 38.9583C22.9167 40.2188 23.9479 41.25 25.2083 41.25L29.7917 41.25C31.0521 41.25 32.0833 40.2188 32.0833 38.9583L32.0833 32.0833 38.9583 32.0833C40.2188 32.0833 41.25 31.0521 41.25 29.7917L41.25 25.2083C41.25 23.9479 40.2188 22.9167 38.9583 22.9167Z" transform="matrix(1 0 -0 1.01818 263 336)"/></g></g></g><path d="M0.795097-1.83516 168.839 70.9709 167.249 74.6412-0.795097 1.83516ZM161.427 60.428 171.686 74.3842 154.488 76.4445C153.391 76.5758 152.396 75.7933 152.264 74.6966 152.133 73.5998 152.915 72.6042 154.012 72.4729L167.806 70.8204 166.432 73.9907 158.204 62.7971C157.55 61.9071 157.741 60.6553 158.631 60.001 159.521 59.3468 160.773 59.538 161.427 60.428Z" transform="matrix(1 0 0 -1 355 444.38)"/><path d="M355.707 217.129 523.68 280.652 522.266 284.393 354.293 220.871ZM515.779 270.471 526.686 283.926 509.605 286.797C508.515 286.981 507.484 286.246 507.301 285.157 507.118 284.067 507.852 283.036 508.941 282.853L522.642 280.55 521.42 283.782 512.671 272.99C511.976 272.132 512.108 270.872 512.966 270.177 513.824 269.481 515.083 269.613 515.779 270.471Z"/><g clip-path="url(#clip13)"><g clip-path="url(#clip14)"><g clip-path="url(#clip15)"><path d="M972.161 327.926 981.53 333.281C983.69 334.515 984.845 336.971 984.418 339.421L979.006 370.092C978.84 371.031 978.025 371.714 977.071 371.714L972.86 371.714C972.795 371.707 972.734 371.746 972.713 371.809L980.876 381.479 981.124 381.479 989.264 371.983 989.14 371.714 984.929 371.714C984.276 371.715 983.666 371.391 983.301 370.851 982.935 370.311 982.861 369.625 983.104 369.019L997.327 333.466C997.524 332.975 997.514 332.426 997.301 331.943 997.088 331.459 996.689 331.082 996.194 330.896L985.979 327.064C984.034 326.334 982.993 324.216 983.605 322.23L989.354 303.546C989.539 302.948 989.429 302.297 989.056 301.794 988.683 301.291 988.092 300.996 987.466 301L973.143 301C972.058 301 971.179 301.879 971.179 302.964L971.179 326.219C971.176 326.923 971.551 327.574 972.161 327.926Z"/><path d="M1009.48 316.714C1002.24 316.718 995.256 319.442 989.922 324.346L997.573 327.215C999.057 327.772 1000.25 328.903 1000.89 330.353 1001.53 331.803 1001.56 333.45 1000.97 334.921L987.83 367.786 989.14 367.786C990.737 367.786 992.188 368.717 992.855 370.168 993.523 371.619 993.285 373.326 992.246 374.539L984.107 384.034C983.33 384.942 982.195 385.464 981 385.464 979.805 385.464 978.67 384.942 977.893 384.034L969.754 374.539C968.715 373.326 968.477 371.619 969.145 370.168 969.812 368.717 971.263 367.786 972.86 367.786L975.414 367.786 980.54 338.738C980.684 337.921 980.3 337.102 979.58 336.691L970.21 331.336C968.379 330.283 967.25 328.332 967.25 326.219L967.25 320.79C962.807 318.103 957.71 316.693 952.518 316.714 937.393 316.714 926 329.089 926 345.491 926 364.097 942.5 377.961 967.497 398.945 971.768 402.526 976.274 406.313 981 410.373 985.726 406.313 990.232 402.526 994.503 398.945 1019.5 377.961 1036 364.097 1036 345.491 1036 329.089 1024.61 316.714 1009.48 316.714ZM967.27 350.182C968.182 349.596 969.395 349.86 969.982 350.771L972.094 354.083C972.471 354.675 972.504 355.423 972.181 356.046 971.857 356.669 971.225 357.072 970.524 357.103 969.822 357.134 969.158 356.788 968.78 356.196L966.661 352.892C966.382 352.452 966.289 351.919 966.404 351.411 966.518 350.903 966.829 350.461 967.27 350.182ZM962.693 379.1 958.921 380.2C958.742 380.252 958.556 380.278 958.369 380.279 957.392 380.279 956.563 379.56 956.425 378.592 956.287 377.624 956.881 376.702 957.819 376.429L961.591 375.329C962.265 375.132 962.992 375.309 963.499 375.794 964.007 376.279 964.217 376.998 964.05 377.68 963.884 378.362 963.367 378.903 962.693 379.1ZM964.451 365.491C964.267 365.979 963.898 366.374 963.424 366.589 962.949 366.804 962.408 366.822 961.921 366.639L958.244 365.264C957.561 365.037 957.057 364.455 956.929 363.748 956.802 363.04 957.071 362.319 957.632 361.868 958.193 361.418 958.955 361.309 959.619 361.586L963.296 362.961C963.785 363.143 964.182 363.512 964.398 363.987 964.615 364.462 964.634 365.003 964.451 365.491ZM970.786 388.607 968.429 391.75C968.007 392.311 967.319 392.606 966.622 392.522 965.925 392.438 965.326 391.988 965.051 391.343 964.775 390.698 964.865 389.954 965.286 389.393L967.643 386.25C968.294 385.382 969.525 385.206 970.393 385.857 971.261 386.508 971.437 387.739 970.786 388.607ZM982.964 395.286C982.964 396.371 982.085 397.25 981 397.25 979.915 397.25 979.036 396.371 979.036 395.286L979.036 391.357C979.036 390.272 979.915 389.393 981 389.393 982.085 389.393 982.964 390.272 982.964 391.357ZM996.321 392.143C995.454 392.794 994.222 392.618 993.571 391.75L991.214 388.607C990.793 388.046 990.704 387.302 990.979 386.657 991.255 386.012 991.854 385.562 992.551 385.478 993.247 385.394 993.936 385.689 994.357 386.25L996.714 389.393C997.365 390.261 997.189 391.492 996.321 392.143ZM997.549 365.491C997.365 365.004 997.383 364.463 997.598 363.988 997.813 363.513 998.208 363.143 998.696 362.959L1002.37 361.584C1003.38 361.252 1004.46 361.771 1004.83 362.761 1005.2 363.75 1004.72 364.855 1003.75 365.262L1000.07 366.637C999.056 367.018 997.923 366.505 997.541 365.489ZM1005.51 378.864C1005.27 379.702 1004.5 380.278 1003.63 380.279 1003.44 380.278 1003.26 380.252 1003.08 380.2L999.307 379.1C998.266 378.796 997.668 377.705 997.972 376.663 998.277 375.622 999.368 375.024 1000.41 375.329L1004.18 376.429C1005.22 376.733 1005.82 377.823 1005.51 378.864Z"/></g></g></g><text font-family="Calibri,Calibri_MSFontService,sans-serif" font-weight="400" font-size="32" transform="translate(960.763 278)">2 x</text><path d="M725 322 885.04 322 885.04 326 725 326ZM874.048 315.273 889.009 324 874.048 332.728C873.094 333.284 871.869 332.962 871.312 332.008 870.756 331.054 871.078 329.829 872.032 329.273L884.032 322.273 884.032 325.728 872.032 318.728C871.078 318.171 870.756 316.946 871.312 315.992 871.869 315.038 873.094 314.716 874.048 315.273Z"/><g clip-path="url(#clip16)"><g clip-path="url(#clip17)"><g clip-path="url(#clip18)"><path d="M680.75 365 553.25 365 553.25 282.5 680.75 282.5 680.75 365ZM684.5 271.25 549.5 271.25C545.375 271.25 542 274.625 542 278.75L542 368.75C542 372.875 545.375 376.25 549.5 376.25L602 376.25 602 387.5 583.25 387.5 583.25 398.75 650.75 398.75 650.75 387.5 632 387.5 632 376.25 684.5 376.25C688.625 376.25 692 372.875 692 368.75L692 278.75C692 274.625 688.625 271.25 684.5 271.25Z"/></g></g></g><g clip-path="url(#clip19)"><g clip-path="url(#clip20)"><g clip-path="url(#clip21)"><path d="M597.875 329.625C597.577 329.625 597.29 329.743 597.08 329.955L591.784 335.25 589.793 335.25C589.327 333.944 588.09 333 586.625 333 584.764 333 583.25 334.514 583.25 336.375 583.25 338.236 584.764 339.75 586.625 339.75 588.09 339.75 589.327 338.806 589.793 337.5L592.25 337.5C592.548 337.5 592.835 337.382 593.045 337.17L598.341 331.875 615.875 331.875 615.875 337.894 606.418 342.097C606.012 342.278 605.75 342.681 605.75 343.125L605.75 352.125C605.75 352.569 606.012 352.972 606.418 353.153L616.543 357.653C616.688 357.717 616.845 357.75 617 357.75 617.155 357.75 617.312 357.717 617.457 357.653L627.582 353.153C627.988 352.972 628.25 352.569 628.25 352.125L628.25 343.125C628.25 342.681 627.988 342.278 627.582 342.097L618.125 337.894 618.125 331.875 621.5 331.875 621.5 333C621.5 336.102 624.023 338.625 627.125 338.625 627.746 338.625 628.25 338.121 628.25 337.5L628.25 331.875 635.659 331.875 640.955 337.17C641.165 337.382 641.452 337.5 641.75 337.5L644.207 337.5C644.673 338.806 645.91 339.75 647.375 339.75 649.236 339.75 650.75 338.236 650.75 336.375 650.75 334.514 649.236 333 647.375 333 645.91 333 644.673 333.944 644.207 335.25L642.216 335.25 636.92 329.955C636.71 329.743 636.423 329.625 636.125 329.625L632.703 329.625C633.216 328.973 633.562 328.204 633.737 327.375L644.208 327.375C644.674 328.681 645.911 329.625 647.376 329.625 649.237 329.625 650.751 328.111 650.751 326.25 650.751 324.389 649.237 322.875 647.376 322.875 645.911 322.875 644.674 323.819 644.208 325.125L633.729 325.125C633.585 324.426 633.318 323.764 632.924 323.166L641.42 314.67C641.632 314.46 641.75 314.173 641.75 313.875L641.75 310.5 649.625 310.5C650.246 310.5 650.75 309.996 650.75 309.375L650.75 298.125C650.75 297.827 650.632 297.54 650.42 297.33L643.67 290.58C643.46 290.368 643.173 290.25 642.875 290.25L631.625 290.25C631.004 290.25 630.5 290.754 630.5 291.375L630.5 309.375C630.5 309.996 631.004 310.5 631.625 310.5L639.5 310.5 639.5 313.409 631.338 321.571C630.74 321.176 630.078 320.884 629.375 320.74 629.404 319.575 629.002 318.183 627.403 316.602 626.325 315.538 624.966 314.953 623.612 315.002 622.965 315.018 622.331 315.144 621.736 315.372 620.922 314.083 619.613 313.185 618.125 312.877L618.125 310.5 626 310.5C626.621 310.5 627.125 309.996 627.125 309.375L627.125 298.125C627.125 297.827 627.007 297.54 626.795 297.33L620.045 290.58C619.835 290.368 619.548 290.25 619.25 290.25L608 290.25C607.379 290.25 606.875 290.754 606.875 291.375L606.875 309.375C606.875 309.996 607.379 310.5 608 310.5L615.875 310.5 615.875 312.876C614.387 313.184 613.078 314.083 612.264 315.371 611.669 315.143 611.035 315.017 610.388 315.001 609.035 314.97 607.675 315.537 606.598 316.601 604.998 318.181 604.596 319.574 604.625 320.739 603.921 320.883 603.26 321.175 602.662 321.57L594.5 313.409 594.5 310.5 602.375 310.5C602.996 310.5 603.5 309.996 603.5 309.375L603.5 298.125C603.5 297.827 603.382 297.54 603.17 297.33L596.42 290.58C596.21 290.368 595.923 290.25 595.625 290.25L584.375 290.25C583.754 290.25 583.25 290.754 583.25 291.375L583.25 309.375C583.25 309.996 583.754 310.5 584.375 310.5L592.25 310.5 592.25 313.875C592.25 314.173 592.368 314.46 592.58 314.67L601.076 323.166C600.682 323.764 600.415 324.426 600.271 325.125L589.793 325.125C589.327 323.819 588.09 322.875 586.625 322.875 584.764 322.875 583.25 324.389 583.25 326.25 583.25 328.111 584.764 329.625 586.625 329.625 588.09 329.625 589.327 328.681 589.793 327.375L600.265 327.375C600.439 328.203 600.785 328.973 601.298 329.625ZM586.625 337.5C586.005 337.5 585.5 336.995 585.5 336.375 585.5 335.755 586.005 335.25 586.625 335.25 587.245 335.25 587.75 335.755 587.75 336.375 587.75 336.995 587.245 337.5 586.625 337.5ZM608 344.856 615.875 348.356 615.875 354.895 608 351.395ZM618.125 354.894 618.125 348.356 626 344.856 626 351.395ZM624.355 343.125 617 346.394 609.645 343.125 615.875 340.356 615.875 343.125 618.125 343.125 618.125 340.356ZM647.375 335.25C647.995 335.25 648.5 335.755 648.5 336.375 648.5 336.995 647.995 337.5 647.375 337.5 646.755 337.5 646.25 336.995 646.25 336.375 646.25 335.755 646.755 335.25 647.375 335.25ZM644 294.091 646.909 297 644 297ZM632.75 292.5 641.75 292.5 641.75 298.125C641.75 298.746 642.254 299.25 642.875 299.25L648.5 299.25 648.5 308.25 632.75 308.25ZM620.375 294.091 623.284 297 620.375 297ZM609.125 292.5 618.125 292.5 618.125 298.125C618.125 298.746 618.629 299.25 619.25 299.25L624.875 299.25 624.875 308.25 609.125 308.25ZM596.75 294.091 599.659 297 596.75 297ZM585.5 292.5 594.5 292.5 594.5 298.125C594.5 298.746 595.004 299.25 595.625 299.25L601.25 299.25 601.25 308.25 585.5 308.25ZM647.375 325.125C647.995 325.125 648.5 325.63 648.5 326.25 648.5 326.87 647.995 327.375 647.375 327.375 646.755 327.375 646.25 326.87 646.25 326.25 646.25 325.63 646.755 325.125 647.375 325.125ZM605.68 322.873C605.719 322.878 605.831 322.89 605.869 322.891 606.219 322.902 606.568 322.75 606.791 322.471 607.013 322.193 607.092 321.825 607.002 321.481 606.778 320.632 606.686 319.679 608.179 318.203 608.818 317.571 609.562 317.242 610.333 317.251 610.98 317.267 611.604 317.467 612.138 317.828 612.428 318.024 612.792 318.077 613.122 317.964 613.454 317.855 613.715 317.598 613.831 317.268 614.306 315.911 615.579 315 617 315 618.421 315 619.694 315.911 620.169 317.268 620.285 317.598 620.546 317.855 620.878 317.964 621.21 318.077 621.573 318.024 621.862 317.828 622.397 317.467 623.021 317.267 623.667 317.251 624.417 317.259 625.182 317.572 625.822 318.203 627.315 319.679 627.223 320.632 626.999 321.481 626.908 321.827 626.987 322.193 627.211 322.471 627.434 322.75 627.775 322.901 628.132 322.891 628.195 322.888 628.257 322.881 628.25 322.875 629.198 322.875 630.109 323.278 630.747 323.98 631.396 324.692 631.701 325.618 631.609 326.584 631.446 328.29 629.886 329.625 628.057 329.625L627.125 329.625C626.504 329.625 626 330.129 626 330.75L626 336.183C624.69 335.718 623.75 334.467 623.75 333L623.75 330.75C623.75 330.129 623.246 329.625 622.625 329.625L622.625 327.841 624.545 325.92C624.757 325.71 624.875 325.423 624.875 325.125L624.875 321.75 622.625 321.75 622.625 324.659 620.705 326.58C620.493 326.79 620.375 327.077 620.375 327.375L620.375 329.625 618.125 329.625 618.125 319.5 615.875 319.5 615.875 329.625 613.625 329.625 613.625 327.375C613.625 327.077 613.507 326.79 613.295 326.58L611.375 324.659 611.375 321.75 609.125 321.75 609.125 325.125C609.125 325.423 609.243 325.71 609.455 325.92L611.375 327.841 611.375 329.625 605.943 329.625C604.114 329.625 602.554 328.29 602.391 326.585 602.299 325.618 602.604 324.692 603.253 323.98 603.891 323.278 604.802 322.875 605.68 322.873ZM586.625 327.375C586.005 327.375 585.5 326.87 585.5 326.25 585.5 325.63 586.005 325.125 586.625 325.125 587.245 325.125 587.75 325.63 587.75 326.25 587.75 326.87 587.245 327.375 586.625 327.375Z"/><path d="M631.625 346.5 633.875 346.5 633.875 348.75 631.625 348.75Z"/><path d="M636.125 346.5 638.375 346.5 638.375 348.75 636.125 348.75Z"/><path d="M636.125 351 638.375 351 638.375 353.25 636.125 353.25Z"/><path d="M636.125 342 638.375 342 638.375 344.25 636.125 344.25Z"/><path d="M600.125 346.5 602.375 346.5 602.375 348.75 600.125 348.75Z"/><path d="M595.625 346.5 597.875 346.5 597.875 348.75 595.625 348.75Z"/><path d="M595.625 351 597.875 351 597.875 353.25 595.625 353.25Z"/><path d="M595.625 342 597.875 342 597.875 344.25 595.625 344.25Z"/></g></g></g><text font-family="Calibri,Calibri_MSFontService,sans-serif" font-weight="400" font-size="24" transform="translate(536.662 226)">Polygenic Model</text><g clip-path="url(#clip22)"><g clip-path="url(#clip23)"><g clip-path="url(#clip24)"><path d="M478.917 555.375C478.917 561.358 461.941 566.208 441 566.208 420.059 566.208 403.083 561.358 403.083 555.375 403.083 549.392 420.059 544.542 441 544.542 461.941 544.542 478.917 549.392 478.917 555.375Z"/><path d="M468.083 582.458C466.458 582.458 465.375 581.375 465.375 579.75 465.375 578.125 466.458 577.042 468.083 577.042 469.708 577.042 470.792 578.125 470.792 579.75 470.792 581.375 469.708 582.458 468.083 582.458ZM441 571.625C420.146 571.625 403.083 566.75 403.083 560.792L403.083 582.458C403.083 588.417 420.146 593.292 441 593.292 461.854 593.292 478.917 588.417 478.917 582.458L478.917 560.792C478.917 566.75 461.854 571.625 441 571.625Z"/><path d="M468.083 609.542C466.458 609.542 465.375 608.458 465.375 606.833 465.375 605.208 466.458 604.125 468.083 604.125 469.708 604.125 470.792 605.208 470.792 606.833 470.792 608.458 469.708 609.542 468.083 609.542ZM441 598.708C420.146 598.708 403.083 593.833 403.083 587.875L403.083 609.542C403.083 615.5 420.146 620.375 441 620.375 461.854 620.375 478.917 615.5 478.917 609.542L478.917 587.875C478.917 593.833 461.854 598.708 441 598.708Z"/><path d="M468.083 636.625C466.458 636.625 465.375 635.542 465.375 633.917 465.375 632.292 466.458 631.208 468.083 631.208 469.708 631.208 470.792 632.292 470.792 633.917 470.792 635.542 469.708 636.625 468.083 636.625ZM441 625.792C420.146 625.792 403.083 620.917 403.083 614.958L403.083 636.625C403.083 642.583 420.146 647.458 441 647.458 461.854 647.458 478.917 642.583 478.917 636.625L478.917 614.958C478.917 620.917 461.854 625.792 441 625.792Z"/></g></g></g><path d="M1.59735-1.20352 92.0774 118.884 88.8827 121.291-1.59735 1.20352ZM90.8361 106.057 92.8689 123.258 76.8951 116.561C75.8765 116.134 75.3969 114.962 75.824 113.943 76.2511 112.925 77.4231 112.445 78.4418 112.872L91.2537 118.244 88.4941 120.323 86.8637 106.527C86.7341 105.43 87.5182 104.435 88.6152 104.306 89.7121 104.176 90.7064 104.96 90.8361 106.057Z" transform="matrix(1 0 0 -1 496 542.251)"/><g clip-path="url(#clip25)"><g clip-path="url(#clip26)"><g clip-path="url(#clip27)"><path d="M38.7344 56.5313 36.6406 56.5313C34.9091 56.5313 33.5 57.9403 33.5 59.6719 33.5 61.4034 34.9091 62.8125 36.6406 62.8125L38.7344 62.8125C40.4659 62.8125 41.875 61.4034 41.875 59.6719 41.875 57.9403 40.4659 56.5313 38.7344 56.5313ZM38.7344 60.7188 36.6406 60.7188C36.0638 60.7188 35.5938 60.2497 35.5938 59.6719 35.5938 59.094 36.0638 58.625 36.6406 58.625L38.7344 58.625C39.3112 58.625 39.7813 59.094 39.7813 59.6719 39.7813 60.2497 39.3112 60.7188 38.7344 60.7188Z" transform="matrix(1.01493 0 -0 1 407 468)"/><path d="M58.6082 47.1094 58.625 47.1094 58.625 29.3125 61.7656 29.3125C62.3435 29.3125 62.8125 28.8445 62.8125 28.2656L62.8125 20.9375C62.8125 18.0513 60.4644 15.7031 57.5781 15.7031L57.0128 15.7031C58.0115 14.5903 58.625 13.1257 58.625 11.5156 58.625 8.05152 55.8079 5.23438 52.3438 5.23438 48.8796 5.23438 46.0625 8.05152 46.0625 11.5156 46.0625 13.1257 46.676 14.5903 47.6747 15.7031L47.1094 15.7031C45.9264 15.7031 44.846 16.1125 43.9688 16.7772L43.9688 15.7031C43.9688 12.8169 41.6206 10.4688 38.7344 10.4688L38.1691 10.4688C39.1678 9.35592 39.7813 7.89134 39.7813 6.28125 39.7813 2.81714 36.9641 0 33.5 0 30.0359 0 27.2188 2.81714 27.2188 6.28125 27.2188 7.89134 27.8322 9.35592 28.8309 10.4688L28.2656 10.4688C25.3794 10.4688 23.0313 12.8169 23.0313 15.7031L23.0313 16.7772C22.154 16.1125 21.0736 15.7031 19.8906 15.7031L19.3253 15.7031C20.324 14.5903 20.9375 13.1257 20.9375 11.5156 20.9375 8.05152 18.1204 5.23438 14.6563 5.23438 11.1921 5.23438 8.375 8.05152 8.375 11.5156 8.375 13.1257 8.98847 14.5903 9.98719 15.7031L9.42188 15.7031C6.53564 15.7031 4.1875 18.0513 4.1875 20.9375L4.1875 28.2656C4.1875 28.8445 4.6565 29.3125 5.23438 29.3125L8.375 29.3125 8.375 47.1094 8.39175 47.1094C4.4398 52.3626 2.09375 58.8888 2.09375 65.9531 2.09375 66.5321 2.56275 67 3.14063 67L15.7031 67 63.8594 67C64.4372 67 64.9063 66.5321 64.9063 65.9531 64.9063 58.8888 62.5602 52.3626 58.6082 47.1094ZM62.1268 59.6719 48.1563 59.6719C47.5794 59.6719 47.1094 59.2029 47.1094 58.625 47.1094 58.0471 47.5794 57.5781 48.1563 57.5781L50.25 57.5781C51.9815 57.5781 53.3906 56.169 53.3906 54.4375 53.3906 52.706 51.9815 51.2969 50.25 51.2969L39.7813 51.2969C39.2044 51.2969 38.7344 50.8279 38.7344 50.25 38.7344 49.6721 39.2044 49.2031 39.7813 49.2031L41.875 49.2031C43.6065 49.2031 45.0156 47.794 45.0156 46.0625 45.0156 44.331 43.6065 42.9219 41.875 42.9219L36.6406 42.9219C36.0638 42.9219 35.5938 42.4529 35.5938 41.875 35.5938 41.2971 36.0638 40.8281 36.6406 40.8281L48.5771 40.8281C55.3734 44.9214 60.3775 51.6936 62.1268 59.6719ZM52.3438 7.32813C54.6532 7.32813 56.5313 9.20622 56.5313 11.5156 56.5313 13.825 54.6532 15.7031 52.3438 15.7031 50.0343 15.7031 48.1563 13.825 48.1563 11.5156 48.1563 9.20622 50.0343 7.32813 52.3438 7.32813ZM43.9688 23.0313 43.9688 20.9375C43.9688 19.206 45.3778 17.7969 47.1094 17.7969L57.5781 17.7969C59.3097 17.7969 60.7188 19.206 60.7188 20.9375L60.7188 27.2188 58.625 27.2188 58.625 20.9375 56.5313 20.9375 56.5313 44.6304C55.5524 43.5741 54.5045 42.5827 53.3906 41.6677L53.3906 29.3125 51.2969 29.3125 51.2969 40.0953C50.6185 39.6263 49.9192 39.1866 49.2031 38.7721L49.2031 38.7344 49.1372 38.7344C48.8126 38.547 48.4871 38.3638 48.1563 38.1879L48.1563 20.9375 46.0625 20.9375 46.0625 27.2188 43.9688 27.2188 43.9688 23.0313ZM42.9219 29.3125 46.0625 29.3125 46.0625 37.1766C44.0672 36.3014 41.9661 35.6241 39.7813 35.1781L39.7813 24.0781 41.875 24.0781 41.875 28.2656C41.875 28.8445 42.344 29.3125 42.9219 29.3125ZM33.5 2.09375C35.8094 2.09375 37.6875 3.97184 37.6875 6.28125 37.6875 8.59066 35.8094 10.4688 33.5 10.4688 31.1906 10.4688 29.3125 8.59066 29.3125 6.28125 29.3125 3.97184 31.1906 2.09375 33.5 2.09375ZM25.125 20.9375 25.125 15.7031C25.125 13.9716 26.5341 12.5625 28.2656 12.5625L38.7344 12.5625C40.4659 12.5625 41.875 13.9716 41.875 15.7031L41.875 20.9375 41.875 21.9844 39.7813 21.9844 39.7813 15.7031 37.6875 15.7031 37.6875 34.8316C37.6592 34.8274 37.6299 34.8264 37.6017 34.8232 36.9987 34.7437 36.3894 34.6819 35.7759 34.638 35.6765 34.6306 35.577 34.6212 35.4775 34.6149 35.1687 34.5961 34.8588 34.5835 34.5469 34.573L34.5469 24.0781 32.4531 24.0781 32.4531 34.573C32.1422 34.5835 31.8313 34.5961 31.5225 34.6149 31.423 34.6212 31.3235 34.6306 31.2241 34.638 30.6106 34.6819 30.0013 34.7437 29.3983 34.8232 29.3701 34.8274 29.3408 34.8285 29.3125 34.8316L29.3125 15.7031 27.2188 15.7031 27.2188 21.9844 25.125 21.9844 25.125 20.9375ZM24.0781 29.3125C24.656 29.3125 25.125 28.8445 25.125 28.2656L25.125 24.0781 27.2188 24.0781 27.2188 35.1792C25.0339 35.6241 22.9328 36.3025 20.9375 37.1766L20.9375 29.3125 24.0781 29.3125ZM14.6563 7.32813C16.9657 7.32813 18.8438 9.20622 18.8438 11.5156 18.8438 13.825 16.9657 15.7031 14.6563 15.7031 12.3468 15.7031 10.4688 13.825 10.4688 11.5156 10.4688 9.20622 12.3468 7.32813 14.6563 7.32813ZM8.375 20.9375 8.375 27.2188 6.28125 27.2188 6.28125 20.9375C6.28125 19.206 7.69034 17.7969 9.42188 17.7969L19.8906 17.7969C21.6222 17.7969 23.0313 19.206 23.0313 20.9375L23.0313 23.0313 23.0313 27.2188 20.9375 27.2188 20.9375 20.9375 18.8438 20.9375 18.8438 38.1879C17.7571 38.7637 16.7092 39.4002 15.7031 40.0953L15.7031 29.3125 13.6094 29.3125 13.6094 41.6688C12.4955 42.5827 11.4476 43.5741 10.4688 44.6314L10.4688 20.9375 8.375 20.9375ZM15.7031 64.9063 4.20634 64.9063C4.46283 57.6462 7.37523 51.053 11.994 46.0625L20.9982 46.0604C21.5426 46.0604 21.9844 46.5022 21.9844 47.0989 21.9844 47.3837 21.8755 47.6506 21.6766 47.8506 21.4808 48.0474 21.2191 48.1563 20.9396 48.1563 20.9396 48.1563 20.9396 48.1563 20.9385 48.1563L18.8417 48.1563C17.1112 48.1563 15.7031 49.5653 15.7031 51.2969 15.7031 53.0284 17.1122 54.4375 18.8438 54.4375L29.3125 54.4375C29.8893 54.4375 30.3594 54.9065 30.3594 55.4844 30.3594 56.0622 29.8925 56.5313 29.3177 56.5313L12.5562 56.5313C10.8278 56.5313 9.42188 57.9403 9.42188 59.6719 9.42188 61.4034 10.831 62.8125 12.5625 62.8125L15.7031 62.8125C16.28 62.8125 16.75 63.2815 16.75 63.8594 16.75 64.4372 16.28 64.9063 15.7031 64.9063ZM18.6515 64.9052C18.7685 64.5767 18.8438 64.2275 18.8438 63.8594 18.8438 62.1278 17.4347 60.7188 15.7031 60.7188L12.5625 60.7188C11.9857 60.7188 11.5156 60.2497 11.5156 59.6719 11.5156 59.094 11.9825 58.625 12.5562 58.625L29.3177 58.625C31.0472 58.625 32.4531 57.2159 32.4531 55.4844 32.4531 53.7528 31.044 52.3438 29.3125 52.3438L18.8438 52.3438C18.2669 52.3438 17.7969 51.8747 17.7969 51.2969 17.7969 50.719 18.2659 50.25 18.8417 50.25L20.9375 50.25C20.9385 50.25 20.9396 50.25 20.9406 50.25 21.7802 50.25 22.5685 49.9234 23.1611 49.3277 23.7515 48.7341 24.0781 47.9427 24.0781 47.0455 24.0781 45.3475 22.6963 43.9667 20.9982 43.9667L14.1328 43.9677C18.1078 40.4617 23.0396 38.0225 28.4792 37.0793 29.301 36.9379 30.1196 36.8301 30.9362 36.7579 30.976 36.7547 31.0158 36.7526 31.0545 36.7495 32.6876 36.6113 34.3134 36.6113 35.9455 36.7495 35.9853 36.7526 36.0251 36.7547 36.0638 36.7579 36.8804 36.8301 37.699 36.9379 38.5208 37.0793 40.5465 37.431 42.5031 37.988 44.3645 38.7333L36.6406 38.7333C34.9091 38.7333 33.5 40.1424 33.5 41.874 33.5 43.6055 34.9091 45.0146 36.6406 45.0146L41.875 45.0146C42.4518 45.0146 42.9219 45.4836 42.9219 46.0615 42.9219 46.6393 42.4518 47.1083 41.875 47.1083L39.7813 47.1083C38.0497 47.1083 36.6406 48.5174 36.6406 50.249 36.6406 51.9805 38.0497 53.3896 39.7813 53.3896L50.25 53.3896C50.8268 53.3896 51.2969 53.8586 51.2969 54.4365 51.2969 55.0143 50.8268 55.4833 50.25 55.4833L48.1563 55.4833C46.4247 55.4833 45.0156 56.8924 45.0156 58.624 45.0156 60.3555 46.4247 61.7646 48.1563 61.7646L62.5089 61.7646C62.6576 62.7957 62.756 63.8426 62.7937 64.9052L18.6515 64.9052Z" transform="matrix(1.01493 0 -0 1 407 468)"/></g></g></g><text font-family="Calibri,Calibri_MSFontService,sans-serif" font-weight="400" font-size="24" transform="translate(563.076 477)">Population <tspan x="0" y="29">structure </tspan><tspan x="0" y="58">as covariate</tspan></text><path d="M979.896 423.636 976.141 434.839 972.185 446.016 967.778 457.096 962.79 468.082 956.907 478.837 950.064 489.418 941.957 499.615 937.313 504.641 932.401 509.49 922.459 519.182 922.468 519.173 912.504 529.012 901.871 538.763 896.047 543.511 889.844 548.195 883.068 552.692 875.786 557.06 867.801 561.18 859.071 565.039 849.529 568.641 839.12 571.921 827.708 574.948 815.179 577.529 801.605 579.791 787.045 581.674 771.56 583.304 755.205 584.62 738.111 585.684 720.208 586.561 701.682 587.187 682.536 587.625 662.894 587.875 642.756 588 622.244 588 601.359 587.875 558.913 587.437 519.93 586.87 519.989 582.87 558.967 583.438 558.958 583.438 601.396 583.875 601.387 583.875 622.262 584 622.25 584 642.75 584 642.738 584 662.863 583.875 662.849 583.875 682.474 583.625 682.454 583.625 701.579 583.188 701.557 583.189 720.057 582.564 720.027 582.565 737.902 581.69 737.876 581.691 754.938 580.629 754.902 580.631 771.215 579.319 771.166 579.323 786.603 577.698 786.556 577.704 801.056 575.829 800.984 575.84 814.484 573.59 814.409 573.604 826.846 571.041 826.737 571.067 838.05 568.067 837.961 568.092 848.274 564.842 848.169 564.879 857.606 561.316 857.504 561.358 866.129 557.546 866.021 557.598 873.896 553.535 873.783 553.598 880.971 549.285 880.894 549.333 887.582 544.896 887.482 544.966 893.607 540.341 893.549 540.387 899.299 535.7 899.211 535.776 909.773 526.089 909.72 526.139 919.662 516.322 929.604 506.63 929.595 506.639 934.47 501.827 934.406 501.893 938.969 496.955 938.872 497.068 946.872 487.005 946.758 487.164 953.508 476.726 953.433 476.853 959.245 466.228 959.179 466.361 964.116 455.486 964.079 455.573 968.454 444.573 968.427 444.645 972.365 433.52 972.354 433.552 976.104 422.364ZM530.824 593.757 515.991 584.812 531.078 576.303C532.04 575.761 533.26 576.101 533.802 577.063 534.345 578.025 534.005 579.245 533.043 579.788L520.942 586.612 520.992 583.157 532.889 590.331C533.835 590.902 534.14 592.131 533.569 593.077 532.999 594.023 531.77 594.327 530.824 593.757Z"/><text font-family="Calibri,Calibri_MSFontService,sans-serif" font-weight="400" font-size="24" transform="translate(969.537 498)">Prediction <tspan x="0" y="29">for global </tspan><tspan x="0" y="58">population</tspan></text></g></svg>